<?xml version="1.0" encoding="UTF-8" standalone="no"?>
<svg width="14px" height="11px" viewBox="0 0 14 11" version="1.1" xmlns="http://www.w3.org/2000/svg" xmlns:xlink="http://www.w3.org/1999/xlink" xmlns:sketch="http://www.bohemiancoding.com/sketch/ns">
    <!-- Generator: bin/sketchtool 1.4 (305) - http://www.bohemiancoding.com/sketch -->
    <title>ic_mail</title>
    <desc>Created with bin/sketchtool.</desc>
    <defs></defs>
    <g id="Page-1" stroke="none" stroke-width="1" fill="none" fill-rule="evenodd" sketch:type="MSPage">
        <g id="Everyday-School" sketch:type="MSArtboardGroup" transform="translate(-839.000000, -5317.000000)" fill="#F7F3EA">
            <g id="Group" sketch:type="MSLayerGroup" transform="translate(0.000000, 4653.000000)">
                <g id="ic_mail" transform="translate(839.000000, 664.000000)" sketch:type="MSShapeGroup">
                    <path d="M12.4414414,0.555282902 L2.20720721,0.555282902 C1.5036036,0.555282902 0.934324324,1.1177829 0.934324324,1.8052829 L0.927927928,9.3052829 C0.927927928,9.9927829 1.5036036,10.5552829 2.20720721,10.5552829 L12.4414414,10.5552829 C13.145045,10.5552829 13.7207207,9.9927829 13.7207207,9.3052829 L13.7207207,1.8052829 C13.7207207,1.1177829 13.145045,0.555282902 12.4414414,0.555282902 L12.4414414,0.555282902 Z M12.4414414,3.0552829 L7.32432432,6.1802829 L2.20720721,3.0552829 L2.20720721,1.8052829 L7.32432432,4.9302829 L12.4414414,1.8052829 L12.4414414,3.0552829 L12.4414414,3.0552829 Z" id="Shape"></path>
                </g>
            </g>
        </g>
    </g>
</svg>