<?xml version="1.0" encoding="UTF-8" standalone="no"?>
<svg width="13px" height="11px" viewBox="0 0 13 11" version="1.1" xmlns="http://www.w3.org/2000/svg" xmlns:xlink="http://www.w3.org/1999/xlink" xmlns:sketch="http://www.bohemiancoding.com/sketch/ns">
    <!-- Generator: bin/sketchtool 1.4 (305) - http://www.bohemiancoding.com/sketch -->
    <title>ic_twitter</title>
    <desc>Created with bin/sketchtool.</desc>
    <defs></defs>
    <g id="Page-1" stroke="none" stroke-width="1" fill="none" fill-rule="evenodd" sketch:type="MSPage">
        <g id="Everyday-School" sketch:type="MSArtboardGroup" transform="translate(-787.000000, -5317.000000)" fill="#F7F3EA">
            <g id="Group" sketch:type="MSLayerGroup" transform="translate(0.000000, 4653.000000)">
                <g id="ic_twitter" transform="translate(787.000000, 664.000000)" sketch:type="MSShapeGroup">
                    <path d="M11.2819435,1.79367457 C11.8236584,1.47275661 12.2421089,0.969588951 12.4383589,0.373711655 C11.929082,0.669273133 11.3670933,0.881633658 10.7678008,0.995737821 C10.290151,0.498116888 9.61138542,0.1875 8.85314669,0.1875 C7.40478909,0.1875 6.22728895,1.33250358 6.22728895,2.7524665 C6.22728895,2.94977161 6.25405032,3.14628434 6.29621974,3.33328838 C4.11638478,3.22948529 2.18064592,2.20809455 0.886368905,0.653425332 C0.663357515,1.03218776 0.530361632,1.47275661 0.530361632,1.94422868 C0.530361632,2.83566745 0.997469125,3.61854879 1.70299607,4.07971978 C1.26832659,4.06387198 0.864473241,3.94976782 0.509276919,3.75800943 L0.509276919,3.78891264 C0.509276919,5.03296498 1.41673054,6.06941113 2.61531539,6.30316618 C2.39798065,6.3649726 2.16442691,6.39587581 1.92600746,6.39587581 C1.75570785,6.39587581 1.59189585,6.3808204 1.4321386,6.3491248 C1.76625021,7.36496881 2.73695796,8.11140021 3.88283103,8.13200235 C2.98673072,8.81662733 1.85140001,9.22629297 0.626053792,9.22629297 C0.413584759,9.22629297 0.201926676,9.21519951 0,9.18984303 C1.15641542,9.92042663 2.54070794,10.3451477 4.02069262,10.3451477 C8.84747004,10.3451477 11.4895468,6.43787248 11.4895468,3.04802798 L11.4781935,2.71601656 C11.9931471,2.35389432 12.4383589,1.9030244 12.7886895,1.38955566 C12.321582,1.59161512 11.813116,1.73186815 11.2819435,1.79367457 Z" id="Fill-125"></path>
                </g>
            </g>
        </g>
    </g>
</svg>