<?xml version="1.0" encoding="UTF-8" standalone="no"?>
<svg width="134px" height="47px" viewBox="0 0 134 47" version="1.1" xmlns="http://www.w3.org/2000/svg" xmlns:xlink="http://www.w3.org/1999/xlink" xmlns:sketch="http://www.bohemiancoding.com/sketch/ns">
    <!-- Generator: bin/sketchtool 1.4 (305) - http://www.bohemiancoding.com/sketch -->
    <title>logo</title>
    <desc>Created with bin/sketchtool.</desc>
    <defs></defs>
    <g id="Page-1" stroke="none" stroke-width="1" fill="none" fill-rule="evenodd" sketch:type="MSPage">
        <g id="Everyday-School" sketch:type="MSArtboardGroup" transform="translate(-215.000000, -46.000000)">
            <g id="logo" sketch:type="MSLayerGroup" transform="translate(215.000000, 46.000000)">
                <path d="M23.3627937,0.265621212 C36.1183175,0.265621212 46.4590053,10.651197 46.4590053,23.4629697 C46.4590053,36.2747424 36.1183175,46.6603182 23.3627937,46.6603182 C10.6079788,46.6603182 0.267291005,36.2747424 0.267291005,23.4629697 C0.267291005,10.651197 10.6079788,0.265621212 23.3627937,0.265621212" id="Fill-1" fill="#FFFFFF" sketch:type="MSShapeGroup"></path>
                <path d="M15.6950159,32.9306212 L31.0319894,32.9306212 L31.0319894,35.6352576 L15.6950159,35.6352576 L15.6950159,32.9306212 Z" id="Fill-2" fill="#3C3300" sketch:type="MSShapeGroup"></path>
                <path d="M27.8202434,24.816 L27.8202434,22.1113636 L23.7754286,22.1113636 L23.7754286,19.4060152 L31.0319894,19.4060152 L31.0319894,16.7006667 L15.6950159,16.7006667 L15.6950159,19.4060152 L15.6964339,19.4060152 L15.6964339,27.5206364 L15.6950159,27.5206364 L15.6950159,30.2252727 L31.0319894,30.2252727 L31.0319894,27.5206364 L23.7754286,27.5206364 L23.7754286,24.816 L27.8202434,24.816" id="Fill-3" fill="#3C3300" sketch:type="MSShapeGroup"></path>
                <path d="M15.6950159,11.2913939 L31.0319894,11.2913939 L31.0319894,13.9967424 L15.6950159,13.9967424 L15.6950159,11.2913939 Z" id="Fill-4" fill="#3C3300" sketch:type="MSShapeGroup"></path>
                <path d="M60.5105714,10.7900606 L58.9911958,10.7900606 L57.6044021,10.7900606 L56.2246984,10.7900606 L54.7202116,10.7900606 L54.7202116,15.4366515 L54.7202116,20.1046061 L56.2438413,20.1046061 L57.6639577,20.1046061 L59.090455,20.1046061 L60.6296825,20.1046061 L60.6296825,19.0428333 L60.6296825,17.9896061 L59.6803386,17.9896061 L58.8430159,17.9896061 L58.0127831,17.9896061 L57.079037,17.9896061 L57.079037,17.1663939 L57.079037,16.3524394 L60.2319365,16.3524394 L60.2319365,14.2367273 L57.079037,14.2367273 L57.079037,12.9200152 L57.9971852,12.9200152 L58.7898413,12.9200152 L59.5846243,12.9200152 L60.5105714,12.9200152 L60.5105714,11.844 L60.5105714,10.7900606 L60.5105714,10.7900606 Z M65.2473651,10.7900606 L62.9693651,10.7900606 L62.9693651,11.1496818 L66.9432804,20.2114242 L67.9500529,20.2114242 L71.8849735,11.1496818 L71.8849735,10.7900606 L69.6062646,10.7900606 L67.4870794,16.0604697 L67.4204339,16.0604697 L65.2473651,10.7900606 L65.2473651,10.7900606 Z M80.4517566,10.7900606 L78.931672,10.7900606 L77.5448783,10.7900606 L76.1651746,10.7900606 L74.6613968,10.7900606 L74.6613968,15.4366515 L74.6613968,20.1046061 L76.1850265,20.1046061 L77.6051429,20.1046061 L79.0316402,20.1046061 L80.5708677,20.1046061 L80.5708677,19.0428333 L80.5708677,17.9896061 L79.6208148,17.9896061 L78.7842011,17.9896061 L77.9539683,17.9896061 L77.0195132,17.9896061 L77.0195132,17.1663939 L77.0195132,16.3524394 L80.1731217,16.3524394 L80.1731217,14.2367273 L77.0195132,14.2367273 L77.0195132,12.9200152 L77.9383704,12.9200152 L78.7310265,12.9200152 L79.5258095,12.9200152 L80.4517566,12.9200152 L80.4517566,11.844 L80.4517566,10.7900606 L80.4517566,10.7900606 Z M89.918254,16.8053485 C90.2536085,16.5746212 90.5279894,16.2954697 90.7392698,15.9693182 C90.9512593,15.645303 91.1015661,15.292803 91.1916085,14.9153788 C91.2823598,14.540803 91.3114286,14.1569697 91.2781058,13.771 C91.2454921,13.3850303 91.1519048,13.0147273 90.9980529,12.6600909 C90.8413651,12.3047424 90.6272487,11.9878485 90.3493228,11.7079848 C90.0728148,11.4295455 89.7346243,11.2073636 89.3347513,11.0428636 C88.9377143,10.8790758 88.4782857,10.7950455 87.9578836,10.7900606 L85.9195238,10.7900606 L83.889672,10.7900606 L83.889672,15.4516061 L83.889672,20.1046061 L85.0666032,20.1046061 L86.2612593,20.1046061 L86.2612593,17.3643636 L87.4934921,17.3643636 L89.0830582,20.1046061 L91.7332804,20.1046061 L91.7332804,19.7592273 L89.918254,16.8053485 L89.918254,16.8053485 Z M87.9578836,15.2479394 L86.2612593,15.2479394 L86.2612593,14.0878939 L86.2612593,12.9200152 C86.5398942,12.9171667 86.8227831,12.9171667 87.1092169,12.9150303 C87.3942328,12.9107576 87.6771217,12.9128939 87.9578836,12.9200152 C88.1826349,12.9235758 88.3683915,12.9833939 88.5165714,13.0973333 C88.6640423,13.2077121 88.7718095,13.3522727 88.843418,13.5295909 C88.9157354,13.7047727 88.9490582,13.8913485 88.9462222,14.0878939 C88.9419683,14.2851515 88.9043915,14.4717273 88.8292381,14.6469091 C88.7547937,14.8220909 88.6441905,14.9666515 88.4981376,15.0777424 C88.3527937,15.1881212 88.171291,15.2436667 87.9578836,15.2479394 L87.9578836,15.2479394 Z M98.8551323,16.1929242 L101.982508,11.1496818 L101.982508,10.7900606 L99.4116931,10.7900606 L97.7292487,13.8913485 L97.6363704,13.8913485 L95.9539259,10.7900606 L93.396582,10.7900606 L93.396582,11.1496818 L96.5104868,16.1929242 L96.5104868,20.1046061 L98.8551323,20.1046061 L98.8551323,16.1929242 L98.8551323,16.1929242 Z M108.057884,10.7900606 L104.560413,10.7900606 L104.560413,20.1046061 L108.057884,20.1046061 C108.663365,20.0989091 109.205746,20.0098939 109.68928,19.8389848 C110.173524,19.6659394 110.594667,19.4309394 110.956963,19.129 C111.319259,18.8270606 111.622,18.4795455 111.863767,18.0864545 C112.104825,17.6926515 112.286328,17.2710758 112.407566,16.8224394 C112.528804,16.3723788 112.589069,15.9159091 112.589069,15.4473333 C112.589069,14.9794697 112.528804,14.523 112.407566,14.0729394 C112.286328,13.6250152 112.104825,13.2034394 111.863767,12.8082121 C111.622,12.4158333 111.319259,12.0676061 110.956963,11.7663788 C110.594667,11.4651515 110.173524,11.2294394 109.68928,11.0563939 C109.205746,10.8854848 108.663365,10.7971818 108.057884,10.7900606 L108.057884,10.7900606 Z M106.931291,12.9591818 L108.057884,12.9591818 C108.426561,12.9613182 108.75128,13.0325303 109.027079,13.1728182 C109.302878,13.3116818 109.53472,13.5011061 109.720476,13.7353939 C109.903397,13.9732424 110.04236,14.2388636 110.135238,14.5343939 C110.228116,14.8285 110.272074,15.1325758 110.272074,15.4473333 C110.272074,15.762803 110.228116,16.0668788 110.135238,16.361697 C110.04236,16.6565152 109.903397,16.9228485 109.720476,17.1578485 C109.53472,17.3949848 109.302878,17.5829848 109.027079,17.7232727 C108.75128,17.8607121 108.426561,17.9340606 108.057884,17.936197 L106.931291,17.936197 L106.931291,12.9591818 L106.931291,12.9591818 Z M121.684762,20.1046061 L124.003175,20.1046061 L124.003175,19.7592273 L119.816561,10.6704242 L118.796317,10.6704242 L114.623175,19.7592273 L114.623175,20.1046061 L116.941587,20.1046061 L117.484677,18.9345909 L121.140963,18.9345909 L121.684762,20.1046061 L121.684762,20.1046061 Z M120.373122,16.8979242 L118.253228,16.8979242 L119.300413,14.4496515 L120.373122,16.8979242 L120.373122,16.8979242 Z M130.184899,16.1929242 L133.311566,11.1496818 L133.311566,10.7900606 L130.740751,10.7900606 L129.058307,13.8913485 L128.966138,13.8913485 L127.282984,10.7900606 L124.726349,10.7900606 L124.726349,11.1496818 L127.840254,16.1929242 L127.840254,20.1046061 L130.184899,20.1046061 L130.184899,16.1929242 L130.184899,16.1929242 Z M56.3629524,33.199803 L55.5858942,33.199803 L54.8400317,33.199803 L54.0721905,33.199803 C54.0693545,33.6541364 54.1508889,34.0579091 54.3139577,34.4104091 C54.4798624,34.7629091 54.7074497,35.062 54.9967196,35.3126667 C55.2859894,35.5633333 55.6192169,35.761303 55.9928571,35.9122727 C56.3657884,36.0611061 56.7606984,36.1579545 57.1761693,36.2070909 C57.5930582,36.2555152 58.0085291,36.2555152 58.425418,36.2049545 C58.8430159,36.1551061 59.2386349,36.0561212 59.6136931,35.9072879 C59.9887513,35.761303 60.3248148,35.5633333 60.6183386,35.3197879 C60.9118624,35.0733939 61.1415767,34.7828485 61.3117354,34.4410303 C61.4797672,34.1020606 61.5655556,33.7139545 61.5705185,33.2788485 C61.5676825,32.8159697 61.4989101,32.4271515 61.369164,32.1173788 C61.236582,31.8040455 61.0529524,31.5519545 60.8168571,31.3561212 C60.5828889,31.161 60.3134709,31.0107424 60.0043492,30.9017879 C59.6973545,30.7928333 59.366254,30.708803 59.0124656,30.6532576 C58.6593862,30.5955758 58.2977989,30.5485758 57.9262857,30.5115455 C57.7171323,30.4894697 57.5207407,30.4602727 57.3371111,30.4232424 C57.1534815,30.3869242 56.9953757,30.3363636 56.8578307,30.2701364 C56.7209947,30.2010606 56.6174815,30.1120455 56.546582,29.9995303 C56.4735556,29.886303 56.4451958,29.7424545 56.4565397,29.5665606 C56.4700106,29.4091818 56.5246032,29.2724545 56.6238624,29.1563788 C56.7209947,29.0381667 56.8471958,28.9448788 57.0017566,28.8722424 C57.1534815,28.7988939 57.3215132,28.7504697 57.5008889,28.7241212 C57.6816825,28.6970606 57.8603492,28.6949242 58.0390159,28.7148636 C58.2183915,28.7369394 58.3814603,28.7839394 58.5317672,28.8530152 C58.6799471,28.9235152 58.7990582,29.0210758 58.8898095,29.145697 C58.9777249,29.2674697 59.0245185,29.416303 59.0259365,29.5936212 L59.7838519,29.5936212 L60.5034815,29.5936212 L61.2791217,29.5936212 C61.2812487,29.1478333 61.2032593,28.7504697 61.0472804,28.4022424 C60.8898836,28.0561515 60.6736402,27.7563485 60.3978413,27.5085303 C60.1213333,27.2621364 59.8058307,27.0627424 59.4506243,26.9139091 C59.094709,26.7657879 58.7196508,26.6653788 58.3247407,26.6169545 C57.9284127,26.5663939 57.5335026,26.5663939 57.1385926,26.6169545 C56.7429735,26.6653788 56.3700423,26.7657879 56.014836,26.9139091 C55.6589206,27.0627424 55.345545,27.2621364 55.071873,27.5085303 C54.7953651,27.7563485 54.5812487,28.0561515 54.4273968,28.4022424 C54.272127,28.7504697 54.1991005,29.1478333 54.2033545,29.5936212 C54.2125714,30.0970909 54.2962328,30.5222273 54.4578836,30.873303 C54.6188254,31.2236667 54.8457037,31.5070909 55.1420635,31.7271364 C55.4355873,31.9457576 55.7872487,32.1152424 56.1977566,32.2306061 C56.6061376,32.3459697 57.0627302,32.4186061 57.5689524,32.4542121 C57.8029206,32.4656061 58.022,32.4855455 58.2247725,32.5118939 C58.430381,32.5382424 58.6090476,32.5781212 58.7657354,32.635803 C58.9202963,32.6913485 59.0415344,32.7689697 59.1301587,32.8715152 C59.2180741,32.9733485 59.2627407,33.1036667 59.2648677,33.2660303 C59.2627407,33.4212727 59.2095661,33.5565758 59.1032169,33.6669545 C59.0004127,33.7808939 58.8628677,33.869197 58.690582,33.9375606 C58.5182963,34.0045 58.3282857,34.0486515 58.1233862,34.0714394 C57.9177778,34.0935152 57.7100423,34.0906667 57.5044339,34.0664545 C57.2995344,34.0422424 57.1102328,33.9931061 56.9393651,33.9204697 C56.7670794,33.8492576 56.6281164,33.7538333 56.5246032,33.6334848 C56.420381,33.5124242 56.3657884,33.3678636 56.3629524,33.199803 L56.3629524,33.199803 Z M64.0420741,31.3895909 C64.048455,32.0240909 64.1392063,32.5930758 64.315746,33.1015303 C64.4922857,33.6071364 64.7354709,34.0529242 65.0417566,34.4346212 C65.3515873,34.8141818 65.7067937,35.1310758 66.1087937,35.3860152 C66.5107937,35.6388182 66.9411534,35.8289545 67.398455,35.9564242 C67.8571746,36.0803333 68.3236931,36.1422879 68.7980106,36.1401515 C69.1957566,36.1401515 69.5885397,36.0981364 69.9791958,36.0112576 C70.3726878,35.9250909 70.745619,35.7897879 71.0986984,35.6060606 C71.4546138,35.4237576 71.7764974,35.1866212 72.0678942,34.8982121 C72.357873,34.6105152 72.6003492,34.2637121 72.7974497,33.8606515 C72.9910053,33.458303 73.1264233,32.9932879 73.1966138,32.4677424 L72.0260635,32.4677424 L70.8647302,32.4677424 C70.7789418,32.800303 70.6378519,33.0773182 70.4407513,33.3016364 C70.2443598,33.5231061 70.0061376,33.6918788 69.7260847,33.8029697 C69.4446138,33.9154848 69.1362011,33.9710303 68.7980106,33.9710303 C68.4470582,33.9639091 68.1294286,33.8941212 67.8465397,33.7559697 C67.5615238,33.6163939 67.3204656,33.4276818 67.1176931,33.1905455 C66.9170476,32.9505606 66.7624868,32.6785303 66.6568466,32.3694697 C66.5476614,32.0611212 66.4930688,31.7356818 66.4930688,31.3895909 C66.4951958,30.8711667 66.592328,30.4189697 66.7816296,30.0301515 C66.9723492,29.6420455 67.2368042,29.3401061 67.5813757,29.1250455 C67.9259471,28.9078485 68.3322011,28.7967576 68.7980106,28.7946212 C69.2971429,28.7924848 69.7168677,28.9035758 70.0586032,29.1250455 C70.4038836,29.3472273 70.6569947,29.6947424 70.8250265,30.1654545 L71.6091746,30.1654545 L72.3727619,30.1654545 L73.1569101,30.1654545 C73.0817566,29.6683939 72.9477566,29.2275909 72.7506561,28.8416212 C72.5542646,28.4556515 72.3110794,28.1223788 72.0218095,27.8432273 C71.7325397,27.5640758 71.4106561,27.3354848 71.0597037,27.1560303 C70.7087513,26.9737273 70.3393651,26.8405606 69.9550899,26.7543939 C69.5708148,26.6675152 69.1844127,26.6262121 68.7980106,26.6262121 C68.3236931,26.6262121 67.8571746,26.6895909 67.398455,26.8163485 C66.9411534,26.9452424 66.5107937,27.1360909 66.1087937,27.3910303 C65.7067937,27.6459697 65.3515873,27.9635758 65.0417566,28.3445606 C64.7354709,28.7262576 64.4922857,29.1699091 64.315746,29.6776515 C64.1392063,30.1853939 64.048455,30.7550909 64.0420741,31.3895909 L64.0420741,31.3895909 Z M84.0286349,26.7323182 L81.604582,26.7323182 L81.604582,30.1120455 L78.7430794,30.1120455 L78.7430794,26.7323182 L77.5257354,26.7323182 L76.3183175,26.7323182 L76.3183175,36.0468636 L77.5257354,36.0468636 L78.7430794,36.0468636 L78.7430794,32.3075152 L81.604582,32.3075152 L81.604582,36.0468636 L84.0286349,36.0468636 L84.0286349,26.7323182 L84.0286349,26.7323182 Z M96.6359788,31.4031212 C96.6338519,30.7600758 96.5431005,30.1789848 96.3686878,29.6641212 C96.1942751,29.1499697 95.9532169,28.6970606 95.6462222,28.3110909 C95.3392275,27.9251212 94.9840212,27.6039545 94.5820212,27.3440303 C94.1778942,27.0869545 93.7475344,26.8946818 93.2881058,26.7657879 C92.8272593,26.6368939 92.3593228,26.5720909 91.8800423,26.5720909 C91.4007619,26.5720909 90.9328254,26.6368939 90.4705608,26.7657879 C90.0111323,26.8946818 89.5814815,27.0869545 89.1787725,27.3440303 C88.7753545,27.6039545 88.4194392,27.9251212 88.1124444,28.3110909 C87.8054497,28.6970606 87.5651005,29.1499697 87.3906878,29.6641212 C87.2162751,30.1789848 87.1276508,30.7600758 87.1233968,31.4031212 C87.1276508,32.048303 87.2162751,32.6293939 87.3906878,33.1463939 C87.5651005,33.6612576 87.8054497,34.1127424 88.1124444,34.5008485 C88.4194392,34.8868182 88.7753545,35.2108333 89.1787725,35.4686212 C89.5814815,35.7278333 90.0111323,35.9201061 90.4705608,36.0497121 C90.9328254,36.1778939 91.4007619,36.242697 91.8800423,36.242697 C92.3593228,36.242697 92.8272593,36.1778939 93.2881058,36.0497121 C93.7475344,35.9201061 94.1778942,35.7278333 94.5820212,35.4686212 C94.9840212,35.2108333 95.3392275,34.8868182 95.6462222,34.5008485 C95.9532169,34.1127424 96.1942751,33.6626818 96.3686878,33.1463939 C96.5431005,32.6293939 96.6338519,32.048303 96.6359788,31.4031212 L96.6359788,31.4031212 Z M89.5609206,31.4031212 C89.5630476,30.9843939 89.6318201,30.6176515 89.7601481,30.3028939 C89.8898942,29.9874242 90.0664339,29.7260758 90.2876402,29.5152879 C90.5081376,29.3073485 90.7577037,29.1499697 91.0313757,29.0452879 C91.3078836,28.9413182 91.5928995,28.8879091 91.8864233,28.8879091 C92.1799471,28.8879091 92.464254,28.9413182 92.7407619,29.0452879 C93.0165608,29.1499697 93.264,29.3073485 93.4852063,29.5152879 C93.7057037,29.7260758 93.8822434,29.9874242 94.0126984,30.3028939 C94.1424444,30.6176515 94.2090899,30.9843939 94.2112169,31.4031212 C94.2090899,31.824697 94.1424444,32.195 94.0126984,32.5118939 C93.8822434,32.8295 93.7057037,33.0929848 93.4852063,33.3037727 C93.264,33.5138485 93.0165608,33.6740758 92.7407619,33.7808939 C92.464254,33.8848636 92.1799471,33.9375606 91.8864233,33.9375606 C91.5928995,33.9375606 91.3078836,33.8848636 91.0313757,33.7808939 C90.7577037,33.6740758 90.5081376,33.5138485 90.2876402,33.3037727 C90.0664339,33.0929848 89.8898942,32.8295 89.7601481,32.5118939 C89.6318201,32.195 89.5630476,31.824697 89.5609206,31.4031212 L89.5609206,31.4031212 Z M108.65982,31.4031212 C108.657693,30.7600758 108.567651,30.1789848 108.393238,29.6641212 C108.218116,29.1499697 107.977767,28.6970606 107.670772,28.3110909 C107.363778,27.9251212 107.008571,27.6039545 106.606571,27.3440303 C106.202444,27.0869545 105.771376,26.8946818 105.312656,26.7657879 C104.851101,26.6368939 104.383164,26.5720909 103.903884,26.5720909 C103.424603,26.5720909 102.956667,26.6368939 102.495111,26.7657879 C102.035683,26.8946818 101.605323,27.0869545 101.203323,27.3440303 C100.799196,27.6039545 100.443989,27.9251212 100.136995,28.3110909 C99.83,28.6970606 99.5896508,29.1499697 99.4152381,29.6641212 C99.2408254,30.1789848 99.1522011,30.7600758 99.1479471,31.4031212 C99.1522011,32.048303 99.2408254,32.6293939 99.4152381,33.1463939 C99.5896508,33.6612576 99.83,34.1127424 100.136995,34.5008485 C100.443989,34.8868182 100.799196,35.2108333 101.203323,35.4686212 C101.605323,35.7278333 102.035683,35.9201061 102.495111,36.0497121 C102.956667,36.1778939 103.424603,36.242697 103.903884,36.242697 C104.383164,36.242697 104.851101,36.1778939 105.312656,36.0497121 C105.771376,35.9201061 106.202444,35.7278333 106.606571,35.4686212 C107.008571,35.2108333 107.363778,34.8868182 107.670772,34.5008485 C107.977767,34.1127424 108.218116,33.6626818 108.393238,33.1463939 C108.567651,32.6293939 108.657693,32.048303 108.65982,31.4031212 L108.65982,31.4031212 Z M101.584762,31.4031212 C101.586889,30.9843939 101.655661,30.6176515 101.784698,30.3028939 C101.913735,29.9874242 102.090984,29.7260758 102.31219,29.5152879 C102.532688,29.3073485 102.782254,29.1499697 103.055926,29.0452879 C103.331725,28.9413182 103.616741,28.8879091 103.910265,28.8879091 C104.204497,28.8879091 104.488804,28.9413182 104.765312,29.0452879 C105.041111,29.1499697 105.28855,29.3073485 105.509048,29.5152879 C105.730254,29.7260758 105.906085,29.9874242 106.037249,30.3028939 C106.166995,30.6176515 106.232931,30.9843939 106.235767,31.4031212 C106.232931,31.824697 106.166995,32.195 106.037249,32.5118939 C105.906085,32.8295 105.730254,33.0929848 105.509048,33.3037727 C105.28855,33.5138485 105.041111,33.6740758 104.765312,33.7808939 C104.488804,33.8848636 104.204497,33.9375606 103.910265,33.9375606 C103.616741,33.9375606 103.331725,33.8848636 103.055926,33.7808939 C102.782254,33.6740758 102.532688,33.5138485 102.31219,33.3037727 C102.090984,33.0929848 101.913735,32.8295 101.784698,32.5118939 C101.655661,32.195 101.586889,31.824697 101.584762,31.4031212 L101.584762,31.4031212 Z M114.112698,26.7323182 L112.916624,26.7323182 L111.728349,26.7323182 L111.728349,36.0468636 L114.594106,36.0468636 L117.477587,36.0468636 L117.477587,35.3155152 L117.477587,34.6368636 L117.477587,33.904803 L114.112698,33.904803 L114.112698,32.7739545 L114.112698,31.9557273 L114.112698,31.3539848 L114.112698,30.8690303 L114.112698,30.3997424 L114.112698,29.850697 L114.112698,29.1229091 L114.112698,28.1159697 L114.112698,26.7323182 L114.112698,26.7323182 Z" id="Fill-5" fill="#FFFFFF" sketch:type="MSShapeGroup"></path>
                <path d="M18.3899048,19.4060152 L21.0833757,19.4060152 L21.0833757,27.5206364 L18.3899048,27.5206364 L18.3899048,19.4060152 Z" id="Fill-6" fill="#FFFCF2" sketch:type="MSShapeGroup"></path>
            </g>
        </g>
    </g>
</svg>